Coordinates
version=1
nRows=9
nColumns=38
inDegrees=yes

Units are S.I. units (second, meters, Newtons, ...)
Angles are in degrees.

endheader
time	pelvis_tilt	pelvis_list	pelvis_rotation	pelvis_tx	pelvis_ty	pelvis_tz	hip_flexion_r	hip_adduction_r	hip_rotation_r	knee_angle_r	ankle_angle_r	subtalar_angle_r	mtp_angle_r	hip_flexion_l	hip_adduction_l	hip_rotation_l	knee_angle_l	ankle_angle_l	subtalar_angle_l	mtp_angle_l	lumbar_extension	lumbar_bending	lumbar_rotation	arm_flex_r	arm_add_r	arm_rot_r	elbow_flex_r	pro_sup_r	wrist_flex_r	wrist_dev_r	arm_flex_l	arm_add_l	arm_rot_l	elbow_flex_l	pro_sup_l	wrist_flex_l	wrist_dev_l
      0.00000000	      2.88028026	      2.16791917	     -1.23099711	     -0.07502559	      0.85715439	      2.59645195	    -14.05123889	     -4.59806893	     -7.28489179	    -28.21873580	     -0.74134407	      0.00000000	      0.00000000	     21.04826050	      1.97384788	     -1.82326519	    -19.30053785	     -6.63259295	      0.00000000	      0.00000000	     -7.45954064	     -4.72881735	      5.13711798	     14.22843613	     -9.89741382	     10.62857982	     34.35447627	     88.25696185	      0.00000000	      0.00000000	    -10.23252586	     -8.96118722	     -1.99692698	      9.21102380	     99.08886578	      0.00000000	      0.00000000
      0.01000000	      2.81658097	      2.54778099	     -1.18199863	     -0.07392764	      0.85893870	      2.59394494	    -12.64234285	     -5.29516250	     -6.70441986	    -31.23876805	     -3.79612405	      0.00000000	      0.00000000	     20.39206677	      2.61585221	     -1.73498459	    -19.39223674	     -5.85802033	      0.00000000	      0.00000000	     -7.43826542	     -5.05152271	      4.92738454	     13.80650827	     -9.80390182	     10.56976920	     33.96764140	     87.73006208	      0.00000000	      0.00000000	    -10.00800751	     -8.96458760	     -1.91098060	      9.42329985	     98.75235818	      0.00000000	      0.00000000
      0.02000000	      2.75092566	      2.90284015	     -1.20548967	     -0.07320779	      0.86052418	      2.59141552	    -11.03025501	     -5.92214155	     -6.08044221	    -34.49172293	     -6.92721846	      0.00000000	      0.00000000	     19.68741202	      3.20357949	     -1.68554149	    -19.45199579	     -5.05514063	      0.00000000	      0.00000000	     -7.39781438	     -5.33041503	      4.73993743	     13.43384037	     -9.72145998	     10.56361143	     33.48766624	     87.25607480	      0.00000000	      0.00000000	     -9.77721311	     -8.96889810	     -1.78898581	      9.69310192	     98.37572717	      0.00000000	      0.00000000
      0.03000000	      2.67863802	      3.20780410	     -1.32391722	     -0.07276596	      0.86207689	      2.58904334	     -9.20378360	     -6.45713815	     -5.42103353	    -37.95231533	     -9.95764391	      0.00000000	      0.00000000	     18.93673577	      3.70150892	     -1.70249816	    -19.46105613	     -4.23623827	      0.00000000	      0.00000000	     -7.33815392	     -5.54941328	      4.59167591	     13.13031364	     -9.63986549	     10.64524728	     32.88144353	     86.88415347	      0.00000000	      0.00000000	     -9.53908687	     -8.98050198	     -1.62527864	     10.03822884	     97.94819220	      0.00000000	      0.00000000
      0.04000000	      2.59528650	      3.44013587	     -1.55397583	     -0.07251346	      0.86372342	      2.58700267	     -7.17989415	     -6.89007803	     -4.74416912	    -41.54730341	    -12.60978771	      0.00000000	      0.00000000	     18.14709160	      4.07866352	     -1.81955233	    -19.39845535	     -3.42001812	      0.00000000	      0.00000000	     -7.26509685	     -5.70063264	      4.49917049	     12.90764291	     -9.54094871	     10.85351407	     32.11646128	     86.67102556	      0.00000000	      0.00000000	     -9.29114858	     -9.00594996	     -1.42061933	     10.47296629	     97.46045067	      0.00000000	      0.00000000
      0.05000000	      2.50076172	      3.59779458	     -1.89962307	     -0.07246794	      0.86536482	      2.58534175	     -5.00540459	     -7.22852324	     -4.07464843	    -45.16360855	    -14.55524919	      0.00000000	      0.00000000	     17.32485606	      4.32912353	     -2.06891577	    -19.24522370	     -2.62787065	      0.00000000	      0.00000000	     -7.18918237	     -5.79439523	      4.46955005	     12.76435212	     -9.40852330	     11.21149474	     31.17439703	     86.65920353	      0.00000000	      0.00000000	     -9.03033657	     -9.04674112	     -1.18671419	     10.99896766	     96.91033952	      0.00000000	      0.00000000
      0.06000000	      2.39799716	      3.70222995	     -2.35278141	     -0.07263085	      0.86689133	      2.58401706	     -2.74739133	     -7.49035223	     -3.43726048	    -48.68028177	    -15.49960276	      0.00000000	      0.00000000	     16.46869723	      4.47722024	     -2.47431248	    -18.98579142	     -1.88197758	      0.00000000	      0.00000000	     -7.11761683	     -5.85673789	      4.49543092	     12.69608906	     -9.24153129	     11.70994960	     30.06132597	     86.86137988	      0.00000000	      0.00000000	     -8.75248141	     -9.10222037	     -0.94637272	     11.60163300	     96.30796710	      0.00000000	      0.00000000
      0.07000000	      2.29229110	      3.78466283	     -2.89542918	     -0.07297172	      0.86836811	      2.58293625	     -0.47528153	     -7.69275464	     -2.84846105	    -51.99638797	    -15.28332045	      0.00000000	      0.00000000	     15.56707801	      4.56276118	     -3.04256685	    -18.61023181	     -1.20438625	      0.00000000	      0.00000000	     -7.05136653	     -5.91509940	      4.55637331	     12.69861105	     -9.05142886	     12.30681840	     28.80821045	     87.25922587	      0.00000000	      0.00000000	     -8.44928402	     -9.17833020	     -0.72854526	     12.25287555	     95.67998474	      0.00000000	      0.00000000
      0.08000000	      2.19455383	      3.86564782	     -3.49798227	     -0.07342565	      0.86984522	      2.58202219	      1.76078985	     -7.84315560	     -2.31002210	    -55.03538254	    -13.95778565	      0.00000000	      0.00000000	     14.60551679	      4.62098584	     -3.75639653	    -18.11754017	     -0.61344576	      0.00000000	      0.00000000	     -6.99297952	     -5.98412656	      4.62687643	     12.75554695	     -8.84553288	     12.94355222	     27.46045773	     87.81571759	      0.00000000	      0.00000000	     -8.10953797	     -9.28817384	     -0.55815205	     12.91659771	     95.07211935	      0.00000000	      0.00000000
